Coordinates
version=1
nRows=17
nColumns=36
inDegrees=yes

Units are S.I. units (second, meters, Newtons, ...)
If the header above contains a line with 'inDegrees', this indicates whether rotational values are in degrees (yes) or radians (no).

endheader
time	pelvis_tilt	pelvis_list	pelvis_rotation	pelvis_tx	pelvis_ty	pelvis_tz	hip_flexion_r	hip_adduction_r	hip_rotation_r	knee_angle_r	knee_angle_r_beta	ankle_angle_r	subtalar_angle_r	mtp_angle_r	hip_flexion_l	hip_adduction_l	hip_rotation_l	knee_angle_l	knee_angle_l_beta	ankle_angle_l	subtalar_angle_l	mtp_angle_l	lumbar_extension	lumbar_bending	lumbar_rotation	arm_flex_r	arm_add_r	arm_rot_r	elbow_flex_r	pro_sup_r	arm_flex_l	arm_add_l	arm_rot_l	elbow_flex_l	pro_sup_l
     45.68333330	     -2.97362536	     -6.65672985	     -3.52163521	      1.07375422	      0.89450567	      0.74579226	     24.68488048	      8.45435942	      6.26977997	     15.60993253	      0.27244472	      2.32314554	     -0.23887902	     -7.49999987	    -10.95908099	     -7.55544031	     -0.56166656	     31.42055016	      0.54839205	      4.97938546	     -2.76577955	     -7.49999987	    -10.94751678	      8.47821750	     -0.73446983	      2.00696647	    -17.39941488	     14.15889081	     18.00832095	     80.13473620	      6.26173272	    -10.80316874	      4.04336252	     17.94643300	     78.95154934
     45.70000000	     -2.51191876	     -7.23274114	     -3.56158543	      1.07481867	      0.89829436	      0.74642274	     23.41303108	      9.31550136	      6.52508175	     17.10192546	      0.29848491	      3.20335284	     -1.29530225	     -7.49999987	    -10.14724780	     -8.37032921	     -0.14431215	     35.16677810	      0.61377607	      0.75756666	     -3.41519445	     -7.49999987	    -11.05706837	      9.25086140	     -0.56817909	      1.80167040	    -17.99108043	     14.21286126	     18.34370466	     80.08825842	      6.08871805	    -10.39336023	      3.76979369	     18.12379337	     78.87355046
     45.71666670	     -2.00349839	     -7.55872728	     -3.54047590	      1.07701052	      0.90309565	      0.74784930	     21.96968841	      9.89350172	      6.82624781	     18.27060053	      0.31888214	      4.36228088	     -2.13590283	     -7.49999987	     -8.72260306	     -8.96944955	      0.33426672	     39.62734343	      0.69162762	     -3.67598476	     -3.91349069	     -7.49999987	    -11.40078673	      9.71935053	     -0.29971657	      1.56402774	    -18.46635841	     14.22971992	     18.63818534	     79.98240233	      5.96920584	    -10.05910919	      3.55855924	     18.26986348	     78.76854804
     45.73333330	     -1.49665282	     -7.68105018	     -3.40572404	      1.08002740	      0.90780223	      0.74978234	     20.35573439	     10.20086199	      7.13683253	     19.04234484	      0.33235161	      5.44243347	     -2.77237952	     -7.49999987	     -6.93356592	     -9.33592048	      0.89674471	     44.23398359	      0.77202865	     -7.69222009	     -4.36996726	     -7.49999987	    -11.89775473	      9.95138245	      0.07878239	      1.41840103	    -18.83095315	     14.25119006	     18.72867795	     79.92435086	      5.96655472	     -9.78158051	      3.45413053	     18.28529946	     78.72320269
     45.75000000	     -1.15586056	     -7.57558580	     -3.07646444	      1.08272629	      0.91269255	      0.75212182	     18.71272977	     10.17934910	      7.42419200	     19.40142967	      0.33861883	      6.21172494	     -3.18893248	     -7.49999987	     -4.75964204	     -9.34833208	      1.66044748	     48.68299982	      0.84967864	    -11.12568487	     -5.44968613	     -7.49999987	    -12.25277474	      9.95093045	      0.45220161	      1.15771863	    -19.08386968	     14.29758992	     18.86983020	     79.84870396	      6.10253175	     -9.56079950	      3.39978081	     18.18390205	     78.70648860
     45.76666670	     -0.88108286	     -7.28393649	     -2.72149521	      1.08460790	      0.91709224	      0.75559597	     17.05234431	      9.96045202	      7.72937050	     19.60667662	      0.34220106	      6.81687756	     -3.40210701	     -7.49999987	     -2.51893704	     -9.07069828	      2.28719988	     52.79871310	      0.92151138	    -13.45629409	     -6.43148892	     -7.49999987	    -12.53786649	      9.73283220	      0.78245921	      0.98388733	    -19.19762191	     14.30738576	     19.16545508	     79.67775514	      6.22110057	     -9.45146605	      3.48715694	     17.93748499	     78.71006007
     45.78333330	     -0.46255711	     -6.83917529	     -2.28033793	      1.08563589	      0.92125208	      0.75974914	     15.26195311	      9.60298727	      8.06487795	     19.78544271	      0.34532112	      7.41904143	     -3.65350110	     -7.49999987	     -0.58231395	     -8.54100354	      2.79183295	     56.34848235	      0.98346655	    -14.10917581	     -7.06010759	     -7.49999987	    -13.11047419	      9.34272498	      1.01752677	      1.13738030	    -19.15300460	     14.29428453	     19.39966000	     79.56421301	      6.37664429	     -9.46491576	      3.56246704	     17.91621486	     78.68925855
     45.80000000	     -0.10467169	     -6.18242260	     -1.83236653	      1.08676585	      0.92492361	      0.76384411	     13.42171594	      9.05166184	      8.50461978	     19.63883758	      0.34276238	      7.85256692	     -3.69736947	     -7.49999987	      1.19697702	     -7.71866561	      3.17120548	     58.99417922	      1.02964267	    -13.35388001	     -7.94916610	     -7.49999987	    -13.52899832	      8.65309998	      1.19175790	      1.39093644	    -18.96638025	     14.26843013	     19.73359261	     79.46423331	      6.39614530	     -9.54896180	      3.61417706	     17.89147974	     78.65083825
     45.81666670	      0.50244175	     -5.30951911	     -1.10995510	      1.08742376	      0.92854271	      0.76687180	     11.28800772	      8.16244189	      8.38227202	     19.35744062	      0.33785107	      8.36506115	     -3.55345220	     -7.49999987	      2.79260677	     -6.63859742	      3.63173712	     60.85952376	      1.06219907	    -11.27629945	     -9.30460105	     -7.49999987	    -14.22290638	      7.82272062	      1.21440332	      1.48675220	    -18.73073812	     13.78329411	     20.63283644	     77.47641506	      6.71313201	     -9.61812684	      4.49133344	     17.24945118	     77.49097865
     45.83333330	      1.12468799	     -4.24819720	     -0.68311145	      1.08716355	      0.93082268	      0.76927348	      9.02047638	      7.08519270	      8.21640960	     18.87986287	      0.32951577	      9.06765680	     -2.89622584	     -7.49999987	      4.53878255	     -5.55114913	      3.55397752	     62.06166702	      1.08318043	     -8.26791293	    -10.62981574	     -7.49999987	    -14.93754738	      6.65261819	      1.48626212	      1.66304211	    -18.43053945	     13.39719990	     21.35519162	     76.09080444	      6.72390948	     -9.68099956	      4.93224091	     17.10334466	     76.51229825
     45.85000000	      1.79895458	     -3.10425916	     -0.53445725	      1.08494810	      0.93221272	      0.77111924	      6.70577697	      5.88483215	      7.92495518	     18.37033657	      0.32062286	      9.91406193	     -2.16546293	     -7.49999987	      6.50273333	     -4.53604482	      3.19255371	     62.78638034	      1.09582906	     -5.46078536	    -11.94404923	     -7.49999987	    -15.76610976	      5.31181022	      1.91751014	      1.93750288	    -18.12398469	     13.13232992	     22.08006781	     74.84627382	      6.58544707	     -9.68435167	      4.98375732	     17.24794333	     75.29643066
     45.86666670	      2.37741783	     -1.96464134	     -0.58379708	      1.07959834	      0.93577642	      0.77307896	      4.64275936	      4.62357965	      7.40147966	     17.87085853	      0.31190532	     10.91489124	     -1.10605463	     -7.49999987	      8.77740533	     -3.63821131	      2.70545082	     62.99122020	      1.09940419	     -3.31010127	    -13.00025391	     -7.49999987	    -16.62426714	      3.92153334	      2.53496158	      2.30201823	    -17.90170373	     12.97484246	     22.80186983	     73.40115988	      6.64602284	     -9.64026115	      5.15630536	     17.36581762	     73.90031451
     45.88333330	      2.87169458	     -0.87913743	     -0.82456463	      1.07337112	      0.94059333	      0.77536116	      2.83211647	      3.43666274	      7.09584938	     17.28716387	      0.30171793	     11.68876142	     -0.37166406	     -7.49999987	     11.01253689	     -2.89057215	      1.98224070	     62.32804855	      1.08782966	     -1.65854021	    -13.80562980	     -7.49999987	    -17.55024799	      2.51995791	      3.34379530	      2.79191484	    -17.74086218	     13.00344281	     23.51856954	     72.83257670	      6.90830743	     -9.65610230	      5.83553359	     17.50660806	     73.36638055
     45.90000000	      2.93662202	      0.03509836	     -1.00225378	      1.06940511	      0.94352565	      0.77696623	      1.52209722	      2.44832875	      6.87727544	     16.49345004	      0.28786501	     11.97492827	      0.00504434	     -7.49999987	     13.42836905	     -2.31884348	      1.20526128	     60.80396757	      1.06122943	     -0.24347128	    -14.52452178	     -7.49999987	    -17.97385760	      1.38707391	      3.86077149	      3.47264770	    -17.57020199	     13.00436065	     23.90410005	     72.84561480	      7.13290220	     -9.56979293	      5.89990259	     17.54602145	     73.37185762
     45.91666670	      3.29442223	      0.92256615	     -1.35512178	      1.06764178	      0.94353525	      0.77824002	     -0.06618437	      1.44579064	      6.64568644	     15.66978933	      0.27348942	     12.46664557	      1.11125504	     -7.49999987	     15.00334639	     -1.87490584	      0.03534049	     58.29743361	      1.01748216	      0.83055598	    -14.71086434	     -7.49999987	    -18.77103128	      0.12717233	      4.62404860	      3.95007053	    -17.56171846	     12.99323756	     24.53619453	     72.92403944	      7.46526964	     -9.49492313	      6.01635124	     17.84795228	     73.45268096
     45.93333330	      3.65020366	      1.56407568	     -1.63138771	      1.06641824	      0.94123869	      0.77882502	     -1.65229498	      0.64838517	      6.38689748	     14.85680271	      0.25930012	     12.81747034	      2.10852935	     -7.49999987	     16.24063322	     -1.68918359	     -1.12366008	     55.21298764	      0.96364842	      1.57938353	    -14.91805274	     -7.49999987	    -19.53692659	     -0.67746744	      5.49102933	      4.19042452	    -17.63080806	     12.89121336	     25.43354944	     73.05048562	      7.77500860	     -9.31430410	      6.17080341	     18.13453441	     73.61512348
     45.95000000	      3.83293807	      1.95139502	     -1.81075360	      1.06607536	      0.93886090	      0.77883396	     -2.99716424	      0.11099805	      6.31825999	     14.23013444	      0.24836270	     12.95357954	      2.58379627	     -7.49999987	     17.30188759	     -1.74474521	     -2.14755425	     51.59941391	      0.90057966	      1.90603458	    -14.99786888	     -7.49999987	    -19.93058845	     -1.20631588	      6.27579328	      4.27264714	    -17.82548412	     12.59857203	     26.36218212	     73.17087563	      8.04120065	     -9.06440028	      6.29705810	     18.19239200	     73.81256551
